<?xml version="1.0" encoding="utf-8"?>
<!-- Generator: Adobe Illustrator 18.1.1, SVG Export Plug-In . SVG Version: 6.00 Build 0)  -->
<!DOCTYPE svg PUBLIC "-//W3C//DTD SVG 1.1//EN" "http://www.w3.org/Graphics/SVG/1.1/DTD/svg11.dtd">
<svg version="1.1" id="Layer_2" xmlns="http://www.w3.org/2000/svg" xmlns:xlink="http://www.w3.org/1999/xlink" x="0px" y="0px"
	 width="400px" height="400px" viewBox="300 100 400 400" enable-background="new 300 100 400 400" xml:space="preserve">
<g>
	<g>
		<path fill="#4D4D4D" d="M521.3,237.7h-22c0,7.5,1.3,14.3,3.5,21.1c4.5-0.8,9.4-2.9,12.5-6.1l0,0
			C519.3,248.7,521.3,244.3,521.3,237.7L521.3,237.7z"/>
		<g>
			<path fill="#4E4D4D" d="M569.3,237.6L569.3,237.6L569.3,237.6z"/>
		</g>
		<g>
			<path fill="#4D4D4D" d="M502.8,258.7c-1.1,0.2-2.3,0.3-3.4,0.3v48.6c12.2,0,24.3-3.8,34.8-9.8c-5.2-3.1-10.1-6.8-14.3-11.1
				C512.2,279,506.3,269.4,502.8,258.7"/>
		</g>
		<path fill="#171717" d="M569.3,237.7h-48.2c0,6.7-2.4,11-6.4,15l0,0c-3.2,3.1-7.3,5.3-11.8,6.1c3.4,10.7,9.4,20.3,17.1,28.1
			c4.3,4.3,9.1,8,14.3,11.1c5.3-3.1,10.2-6.8,14.5-11l0.1,1.3C561.4,275.4,569.3,256.9,569.3,237.7z"/>
		<g>
			<path fill="#262626" d="M449.7,286.8c12.7,12.7,30.1,20.8,49.4,20.8h0.3v-0.3V259h-0.2c-6,0-11.6-2.5-15.5-6.5L449.7,286.8z"/>
			<polyline fill="#262626" points="483.7,252.7 483.7,252.7 483.7,252.7 			"/>
		</g>
		<g>
			<path fill="#666666" d="M477.3,237.1h-48c0,19.4,7.9,37.1,20.6,49.8l26.3-26.6l7.6-7.6C479.8,248.7,477.3,243.8,477.3,237.1"/>
		</g>
		<g>
			<line fill="none" x1="483.7" y1="252.7" x2="483.7" y2="252.7"/>
			<path fill="#040505" d="M483.7,252.7"/>
		</g>
		<g>
			<path fill="#060808" d="M429.3,237.1L429.3,237.1L429.3,237.1z"/>
		</g>
		<g>
			<path fill="#1A1A1A" d="M500.2,167.4h-1c-19.2,0-36.7,7.5-49.3,20.1l33.8,33.9c0,0,0,0-0.1,0.1l0.1,0.1c4-4,9.5-6.6,15.6-6.6h0.9
				V167.4z"/>
		</g>
		<path fill="#4D4D4D" d="M483.8,221.6c-3.9,4-6.5,9.6-6.5,15.6v0.1h-48c0-19.3,7.9-37,20.6-49.7l0.1,0.1l0,0L483.8,221.6z"/>
		<g>
			<g id="XMLID_2_">
				<g>
					<path fill="#666666" d="M499.5,167.4c18.4,0,36.7,7.3,49.3,20l-34,34.1c-3.9-4-9.5-6.5-15.3-6.5V167.4z"/>
				</g>
			</g>
		</g>
		<path fill="#060808" d="M483.8,221.7"/>
		<path fill="#4D4D4D" d="M569.3,237.7c0,19.3-7.8,36.4-20.4,49.1l0,0c-4.3,4.3-9.2,8-14.5,11.1c10.3,6,22.2,9.5,35,9.5L569.3,237.7
			L569.3,237.7z"/>
	</g>
	<g>
		<path fill="#666666" d="M525.2,406.4c0,0-0.2-0.2-0.3-0.3c-5.1-4.6-10.4-8.9-16.2-12.9c-2.3-1.5-4.6-3-6.9-4.6
			c-1.4-0.9-2.5-0.6-3.9,0.3c-8.2,5-15.8,10.7-22.8,17.2c-0.1,0.1-0.4,0.3-0.4,0.3L470,404c0,0,0.2-0.2,0.4-0.3
			c7.4-6.9,15.5-13.2,24.5-18.7c-1.1-0.7-1.9-1.2-2.7-1.6c-6.4-2.9-12.8-5.5-19.6-7.1c-1.5-0.4-2.2-0.1-3.1,1.1
			c-5.1,7-12.1,11.1-20.5,12.6c-7.3,1.3-14.5,0.8-21.2-2.9c-0.8-0.5-1.6-1-2.7-1.6c2.3-4.7,5.7-8,9.8-10.8
			c10.5-7.2,22.1-6.7,33.8-4.5c10.4,2,20.1,5.8,29.4,10.7c1.5,0.8,2.7,0.7,4.2,0c11.4-6.1,23.5-10.4,36.4-11.7
			c10.8-1.2,21,0.4,29.4,7.8c2.7,2.4,4.8,5.3,7.3,8.1c-3.8,3-7.7,4.3-11.7,5c-10,1.7-19.2-0.4-27.3-6.7c-2.3-1.8-4-4.3-6-6.3
			c-0.5-0.5-1.5-1.1-2.1-0.9c-7.4,2-14.8,4.4-21.6,8c-0.3,0.2-0.6,0.4-1.3,0.9c8.8,5.5,16.8,11.8,24.1,18.7c0.1,0.1,0.4,0.3,0.4,0.3
			L525.2,406.4z"/>
		<path fill="#666666" d="M569.2,326.7c1,9.2-1.6,17.3-7.4,24.2c-5.5,6.6-12.6,10.7-21.3,11.8c-1.9,0.2-2.5-0.2-2.7-2.1
			c-1.1-16.3,13.1-32.8,29.4-33.9C567.8,326.5,568.4,326.6,569.2,326.7z"/>
		<path fill="#666666" d="M614.1,327.5c2.8-13.3,16.2-23.5,29.4-24.1c3.4-0.2,6.9,0.4,10.3,0.7c1.9,0.2,2.5,1.1,1.8,3.1
			c-3.1,8.9-9.1,15.1-17.6,19C630.2,329.7,622.3,330.3,614.1,327.5z"/>
		<path fill="#666666" d="M385.2,146.7c-0.1-5.5,2-11.4,5.7-16.7c5.3-7.7,12.3-12.9,21.8-14.4c2.8-0.4,3-0.2,3.2,2.6
			c1.1,16.3-11.8,30.9-25.1,33.7C385.4,153.2,385.4,153.2,385.2,146.7z"/>
		<path fill="#666666" d="M367.1,270.9c-2.6-4.7-3.2-9.9-2.8-15.1c0.5-6.7,2.8-12.9,6.9-18.4c3.1-4.2,7.1-7.3,11.8-9.7
			c1.8-0.9,2.7-0.4,3.4,1.4c3.4,9.3,2.4,18.3-2.1,26.9c-3.2,6.1-7.8,10.9-14.1,13.9c-0.6,0.3-1.3,0.6-2,0.8
			C367.8,270.9,367.5,270.8,367.1,270.9z"/>
		<path fill="#666666" d="M646.3,235.7c-10-17.5,2.3-40.8,16-44.4C671.3,205,663.5,229.5,646.3,235.7z"/>
		<path fill="#666666" d="M377.2,352.6c6.9-5.8,14.8-7.8,23.5-7.1c7.9,0.6,14.7,3.7,20.5,9.1c0.6,0.6,1.2,1.3,1.8,1.9
			c1.3,1.5,1.3,2.7-0.5,3.9c-3.6,2.5-7.5,4.3-11.9,5c-12.3,2.1-23-0.9-31.6-10.1c-0.5-0.5-0.9-1.1-1.3-1.7
			C377.5,353.3,377.4,353,377.2,352.6z"/>
		<path fill="#666666" d="M361.3,284.8c-11.7-0.9-20.2-6.3-26.3-15.7c-3.4-5.3-5.1-11.1-5-17.3c0-3,0.6-3.4,3.5-3
			c16,2.4,28.4,16.8,28.1,32.8C361.6,282.5,361.5,283.4,361.3,284.8z"/>
		<path fill="#666666" d="M614.9,227.2c14.7,3.4,26.8,26.8,18,43.5C616.1,266.5,606.4,241.6,614.9,227.2z"/>
		<path fill="#666666" d="M603.5,190.8c14.5-1.9,34.3,14.2,32.5,34.1C619.1,226.8,600.9,207.8,603.5,190.8z"/>
		<path fill="#666666" d="M596.5,299.9c8.8,15.5,0.6,38.4-15.9,44.7C571.7,330.9,579,306.3,596.5,299.9z"/>
		<path fill="#666666" d="M622.8,352.7c-9.5,14.6-33.6,18.2-47.1,6.1C583.8,344.7,608.9,340.2,622.8,352.7z"/>
		<path fill="#666666" d="M386.6,312.4c-13.3-11.2-12.7-36.8,1.1-47.2C401.4,277.2,399.7,302.9,386.6,312.4z"/>
		<path fill="#666666" d="M385.9,327.4c-15.8,6-37.1-3.6-41.8-22.2C358.6,298.4,382.1,309,385.9,327.4z"/>
		<path fill="#666666" d="M622.4,181c-14.5,7.2-38.2-2.2-42.6-20.4C594.4,153.5,617.4,162.7,622.4,181z"/>
		<path fill="#666666" d="M612.5,265c4.6,3.9,7.5,8.7,9.1,14.2c2.3,8,2.3,16-1.2,23.6c-1.4,3.1-3.7,5.8-5.6,8.6
			c-0.7,1-1.5,1.2-2.6,0.2c-12.3-11.5-12.6-34.2-0.6-46C611.7,265.5,612,265.4,612.5,265z"/>
		<path fill="#666666" d="M419.6,344.6c-17.3-6.4-24.5-30.2-16.1-44.5C417.6,303.9,429.5,327.2,419.6,344.6z"/>
		<path fill="#666666" d="M396.5,190.5c2.2,18.4-15.7,35.8-32.3,34.5C361.9,207.9,378.4,189.8,396.5,190.5z"/>
		<path fill="#666666" d="M353.7,235.7c-17.1-6.2-24.7-30.4-16-44.5C353.4,196.1,362.8,220.1,353.7,235.7z"/>
		<path fill="#666666" d="M365,139.9c13.1,11.1,12.9,36-0.9,47.3C351.2,177,350.8,151.1,365,139.9z"/>
		<path fill="#666666" d="M377.5,181c5-17.9,27.5-27.6,42.7-20.4C416.3,177.3,393.9,188.5,377.5,181z"/>
		<path fill="#666666" d="M430.9,326.8c15.9-0.9,33.7,16.6,31,35.6C446.4,363.5,428.2,345.9,430.9,326.8z"/>
		<path fill="#666666" d="M636,187.3c-13.5-10.7-14.5-35.8-1-47.4C648.1,149.8,649.8,175,636,187.3z M635.4,160.7
			c-0.1-0.1-0.1-0.3-0.2-0.4c-0.1,0.1-0.3,0.2-0.4,0.3c0.1,0.1,0.2,0.3,0.2,0.3C635.2,160.9,635.3,160.8,635.4,160.7z"/>
		<path fill="#666666" d="M614.3,152.3c-16.8,0.8-33.2-19.4-29.6-36.6C599.1,115.1,617.6,132,614.3,152.3z"/>
		<path fill="#666666" d="M638.7,284.8c-1-9.5,1.8-17.4,7.3-24.3c5.1-6.3,11.7-10.4,19.9-11.8c0.6-0.1,1.2-0.2,1.8-0.3
			c1.6-0.3,2.3,0.2,2.4,2.1c0.3,7.7-2,14.5-6.7,20.7c-4.7,6.3-10.6,10.6-18.2,12.5C643.1,284.3,641,284.5,638.7,284.8z"/>
	</g>
</g>
<g>
	<path d="M396.2,453.9c-2.8,1.4-5.6,2.5-8.6,3.1s-6.1,1-9.2,1c-3.3,0-6.4-0.5-9.2-1.6c-2.8-1-5.2-2.5-7.3-4.5c-2-1.9-3.6-4.3-4.8-7
		c-1.1-2.8-1.7-5.8-1.7-9.2c0-3.4,0.6-6.5,1.7-9.2c1.1-2.8,2.7-5.1,4.8-7c2-1.9,4.5-3.4,7.3-4.5c2.8-1,5.9-1.6,9.2-1.6
		c3.4,0,6.5,0.4,9.4,1.2c2.9,0.8,5.4,2.2,7.5,4.2l-6.6,7.2c-1.3-1.3-2.7-2.3-4.3-3c-1.6-0.7-3.6-1-6-1c-2,0-3.8,0.3-5.4,1
		s-3,1.6-4.2,2.9c-1.2,1.2-2,2.7-2.7,4.3c-0.6,1.7-0.9,3.5-0.9,5.5s0.3,3.8,0.9,5.5s1.5,3.1,2.7,4.3c1.2,1.2,2.6,2.2,4.2,2.8
		c1.6,0.7,3.4,1,5.4,1s3.8-0.2,5.3-0.7s2.7-0.9,3.5-1.4v-6.9h-7.6v-8.6h16.6L396.2,453.9L396.2,453.9z M400.7,442.3
		c0-2.3,0.4-4.4,1.3-6.3c0.8-1.9,2-3.5,3.5-4.8s3.2-2.4,5.2-3.1s4.1-1.1,6.3-1.1c2.2,0,4.3,0.4,6.3,1.1s3.7,1.8,5.2,3.1
		c1.5,1.3,2.6,3,3.5,4.8c0.8,1.9,1.3,4,1.3,6.3s-0.4,4.4-1.3,6.3c-0.8,1.9-2,3.5-3.5,4.8s-3.2,2.4-5.2,3.1s-4.1,1.1-6.3,1.1
		c-2.2,0-4.3-0.4-6.3-1.1s-3.7-1.7-5.2-3.1c-1.5-1.3-2.6-2.9-3.5-4.8C401.1,446.7,400.7,444.6,400.7,442.3z M409.7,442.3
		c0,2.2,0.6,4,1.9,5.3c1.3,1.4,3,2,5.3,2s4-0.7,5.3-2c1.3-1.4,1.9-3.1,1.9-5.3c0-2.2-0.6-4-1.9-5.3c-1.3-1.4-3-2-5.3-2s-4,0.7-5.3,2
		C410.3,438.3,409.7,440.1,409.7,442.3z M435.5,442.3c0-2.3,0.4-4.4,1.3-6.3c0.8-1.9,2-3.5,3.5-4.8s3.2-2.4,5.2-3.1s4.1-1.1,6.3-1.1
		c2.2,0,4.3,0.4,6.3,1.1s3.7,1.8,5.2,3.1c1.5,1.3,2.6,3,3.5,4.8c0.8,1.9,1.3,4,1.3,6.3s-0.4,4.4-1.3,6.3c-0.8,1.9-2,3.5-3.5,4.8
		s-3.2,2.4-5.2,3.1s-4.1,1.1-6.3,1.1c-2.2,0-4.3-0.4-6.3-1.1s-3.7-1.7-5.2-3.1c-1.5-1.3-2.6-2.9-3.5-4.8
		C436,446.7,435.5,444.6,435.5,442.3z M444.5,442.3c0,2.2,0.6,4,1.9,5.3c1.3,1.4,3,2,5.3,2s4-0.7,5.3-2c1.3-1.4,1.9-3.1,1.9-5.3
		c0-2.2-0.6-4-1.9-5.3c-1.3-1.4-3-2-5.3-2s-4,0.7-5.3,2C445.2,438.3,444.5,440.1,444.5,442.3z M502.2,456.9H494V453h-0.1
		c-0.4,0.5-0.8,1-1.4,1.6c-0.6,0.5-1.3,1-2,1.5c-0.8,0.4-1.6,0.8-2.6,1.1c-0.9,0.3-1.9,0.4-2.9,0.4c-2.2,0-4.1-0.4-5.9-1.1
		s-3.3-1.8-4.5-3.1c-1.3-1.3-2.2-2.9-2.9-4.8c-0.7-1.8-1-3.9-1-6.1c0-2,0.3-4,0.9-5.9s1.5-3.5,2.6-4.9s2.5-2.6,4.2-3.5
		c1.6-0.9,3.5-1.3,5.6-1.3c1.9,0,3.6,0.3,5.2,0.9s2.9,1.6,4,3h0.1v-17.3h9v43.4H502.2z M494,442.3c0-2.2-0.6-4-1.9-5.3
		c-1.3-1.4-3-2-5.3-2s-4,0.7-5.3,2c-1.3,1.4-1.9,3.1-1.9,5.3c0,2.2,0.6,4,1.9,5.3c1.3,1.4,3,2,5.3,2s4.1-0.7,5.3-2
		S494,444.5,494,442.3z M569.8,453.2L569.8,453.2c-1.1,1.6-2.4,2.7-4.1,3.4c-1.7,0.7-3.4,1-5.2,1c-1.4,0-2.7-0.2-3.9-0.6
		c-1.3-0.4-2.4-1-3.3-1.7c-0.9-0.7-1.7-1.7-2.3-2.8c-0.6-1.1-0.8-2.4-0.8-3.9c0-1.7,0.3-3.1,0.9-4.3c0.6-1.2,1.5-2.1,2.5-2.9
		c1.1-0.8,2.3-1.3,3.6-1.8c1.4-0.4,2.8-0.7,4.2-0.9c1.5-0.2,2.9-0.3,4.4-0.4c1.5,0,2.8-0.1,4.1-0.1c0-1.6-0.6-2.9-1.7-3.8
		c-1.1-0.9-2.5-1.4-4-1.4s-2.8,0.3-4,0.9s-2.3,1.5-3.3,2.5l-4.8-4.9c1.7-1.6,3.6-2.7,5.9-3.5c2.2-0.8,4.6-1.2,7-1.2
		c2.6,0,4.8,0.3,6.5,1s3.1,1.6,4.1,2.9s1.7,2.9,2.1,4.7c0.4,1.9,0.6,4,0.6,6.4v14.8H570v-3.4H569.8z M567.6,444.1
		c-0.7,0-1.5,0-2.5,0.1s-2,0.2-2.9,0.5s-1.7,0.7-2.4,1.3c-0.7,0.6-1,1.3-1,2.3c0,1.1,0.5,1.9,1.4,2.4s1.9,0.8,2.9,0.8
		c0.9,0,1.7-0.1,2.6-0.4c0.8-0.2,1.5-0.6,2.2-1c0.6-0.4,1.1-1,1.5-1.7s0.6-1.5,0.6-2.4v-1.9L567.6,444.1L567.6,444.1z M602.2,437.1
		c-0.4-0.6-1.1-1.2-1.9-1.6s-1.7-0.6-2.6-0.6c-2.3,0-4.1,0.7-5.3,2c-1.3,1.4-1.9,3.1-1.9,5.3c0,2.2,0.6,4,1.9,5.3c1.3,1.4,3,2,5.3,2
		c1,0,1.9-0.2,2.6-0.7c0.7-0.4,1.3-1,1.9-1.6l5.9,6.2c-1.4,1.4-3.1,2.5-5,3c-1.9,0.6-3.7,0.9-5.4,0.9c-2.2,0-4.4-0.4-6.3-1.1
		c-2-0.7-3.7-1.7-5.2-3.1c-1.5-1.3-2.6-2.9-3.5-4.8c-0.8-1.9-1.3-4-1.3-6.3s0.4-4.4,1.3-6.3c0.8-1.9,2-3.5,3.5-4.8s3.2-2.4,5.2-3.1
		s4.1-1.1,6.3-1.1c1.7,0,3.5,0.3,5.4,0.9s3.5,1.6,5,3L602.2,437.1z M610.3,411.5h9v27.7l10-11.5h11l-11.6,13.1l11.9,16h-11.3
		l-9.8-14.8h-0.1v14.8h-9v-45.3H610.3z M508.8,413.6h9.4v16.6h18.2v-16.6h9.4v43.3h-9.4v-18.4h-18.2v18.4h-9.4V413.6z"/>
</g>
</svg>
