<?xml version="1.0" encoding="utf-8"?>
<!-- Generator: Adobe Illustrator 18.1.1, SVG Export Plug-In . SVG Version: 6.00 Build 0)  -->
<!DOCTYPE svg PUBLIC "-//W3C//DTD SVG 1.1//EN" "http://www.w3.org/Graphics/SVG/1.1/DTD/svg11.dtd">
<svg version="1.1" id="Layer_1" xmlns="http://www.w3.org/2000/svg" xmlns:xlink="http://www.w3.org/1999/xlink" x="0px" y="0px"
	 width="120px" height="120px" viewBox="-89 91 120 120" enable-background="new -89 91 120 120" xml:space="preserve">
<path fill="#ACACAD" d="M3.2,110.6v-7h-64.3v7h-17.8v15.6c0,17.9,11.6,28.6,26.7,31c4.2,5.7,9,9.6,16.1,11.4V183
	c-10.7,2.8-17.9,10.7-17.9,15.4h50c0-4.6-7.2-12.6-17.9-15.4v-14.3c7.1-1.8,11.9-5.7,16.1-11.4c15.2-2.4,26.7-13.2,26.7-31v-15.6
	H3.2V110.6z M-71.8,128.2v-10.5h10.7v9.4c0,8.3,1.3,15.5,3.7,21.4C-65.3,145.4-71.8,140.4-71.8,128.2z M14,128.2
	c0,12.2-6.4,17.2-14.4,20.3c2.4-6,3.7-13.1,3.7-21.4v-9.4H14V128.2z"/>
</svg>
