<svg xmlns="http://www.w3.org/2000/svg" xmlns:xlink="http://www.w3.org/1999/xlink" preserveAspectRatio="xMidYMid" width="56" height="56" viewBox="0 0 56 56">
  <defs>
    <style>
      .cls-1 {
        fill: #fff;
      }

      .cls-2 {
        fill: #5dc1c4;
        fill-rule: evenodd;
      }
    </style>
  </defs>
  <g>
    <circle cx="28" cy="28" r="28" class="cls-1"/>
    <path d="M22.181,40.507 C22.241,40.507 22.294,40.503 22.340,40.496 C22.385,40.488 22.438,40.477 22.498,40.462 C22.559,40.448 22.612,40.429 22.657,40.407 C22.702,40.385 22.755,40.359 22.816,40.329 L40.446,28.967 C40.551,28.923 40.630,28.864 40.683,28.790 C40.736,28.716 40.793,28.638 40.854,28.557 C40.914,28.476 40.952,28.387 40.967,28.291 C40.982,28.194 40.997,28.102 41.012,28.013 C40.997,27.910 40.982,27.810 40.967,27.714 C40.952,27.618 40.914,27.529 40.854,27.447 C40.793,27.366 40.736,27.292 40.683,27.225 C40.630,27.159 40.551,27.096 40.446,27.037 L22.816,15.675 C22.710,15.616 22.612,15.575 22.521,15.553 C22.430,15.531 22.328,15.516 22.215,15.509 C22.102,15.501 22.000,15.509 21.909,15.531 C21.818,15.553 21.720,15.594 21.615,15.653 C21.539,15.697 21.459,15.757 21.377,15.830 C21.293,15.905 21.229,15.982 21.184,16.063 C21.139,16.145 21.097,16.237 21.059,16.341 C21.021,16.444 21.010,16.548 21.025,16.652 L21.003,39.375 C21.017,39.479 21.037,39.579 21.059,39.675 C21.082,39.771 21.123,39.860 21.184,39.941 C21.244,40.022 21.309,40.100 21.377,40.174 C21.445,40.248 21.531,40.307 21.637,40.351 C21.667,40.381 21.709,40.404 21.762,40.418 C21.815,40.433 21.860,40.448 21.898,40.462 C21.935,40.477 21.981,40.488 22.034,40.496 C22.087,40.503 22.136,40.507 22.181,40.507 L22.181,40.507 Z" class="cls-2"/>
  </g>
</svg>
