<?xml version="1.0" encoding="utf-8"?>
<!-- Generator: Adobe Illustrator 18.1.1, SVG Export Plug-In . SVG Version: 6.00 Build 0)  -->
<!DOCTYPE svg PUBLIC "-//W3C//DTD SVG 1.1//EN" "http://www.w3.org/Graphics/SVG/1.1/DTD/svg11.dtd">
<svg version="1.1" id="Layer_1" xmlns="http://www.w3.org/2000/svg" xmlns:xlink="http://www.w3.org/1999/xlink" x="0px" y="0px"
	 width="120px" height="120px" viewBox="-89 91 120 120" enable-background="new -89 91 120 120" xml:space="preserve">
<g>
	<g>
		<g>
			<path fill="#EE5D92" d="M-8.2,163.2l0.3,0.5h0.6l26.7-0.1H21l-0.8-1.4l-31.6-54.9l-0.3-0.5h-0.6l-26.7,0.1h-1.6l0.8,1.4
				L-8.2,163.2z M-31.5,135.4l-0.2-0.4l-13.8-23.8l-0.8-1.4l-0.8,1.4l-31.6,55l-0.3,0.6l0.3,0.5L-65,191l0.8,1.4l0.8-1.4l31.6-55
				L-31.5,135.4z M-44.3,170.3l-13.5,23.4l-0.8,1.4h65l0.3-0.5l13.5-23.4l0.8-1.4h-65L-44.3,170.3z"/>
		</g>
	</g>
</g>
</svg>
